<svg width="30" height="30" viewBox="0 0 30 30" fill="none" xmlns="http://www.w3.org/2000/svg">
<path d="M15 0C6.75 0 0 6.75 0 15C0 23.25 6.75 30 15 30C23.25 30 30 23.25 30 15C30 6.75 23.25 0 15 0ZM15 13.5C17.85 13.5 20.25 15.9 20.25 18.75C20.25 21.15 18.6 23.1 16.5 23.7V25.5H13.5V23.7C11.4 23.1 9.75 21 9.75 18.75H12.75C12.75 21.75 17.25 21.75 17.25 18.75C17.25 17.55 16.2 16.5 15 16.5C12.15 16.5 9.75 14.1 9.75 11.25C9.75 8.85 11.4 6.9 13.5 6.3V4.5H16.5V6.3C18.6 6.9 20.25 9 20.25 11.25H17.25C17.25 8.25 12.75 8.25 12.75 11.25C12.75 12.45 13.8 13.5 15 13.5Z" fill="white"/>
</svg>
