<svg width="30" height="30" viewBox="0 0 30 30" fill="none" xmlns="http://www.w3.org/2000/svg">
<path d="M14.9998 28.8153C15.6908 28.8153 16.251 28.2551 16.251 27.5641C16.251 26.8731 15.6908 26.313 14.9998 26.313C14.3088 26.313 13.7487 26.8731 13.7487 27.5641C13.7487 28.2551 14.3088 28.8153 14.9998 28.8153Z" fill="white"/>
<path d="M6.29605 17.174C6.59649 17.174 6.84003 16.9305 6.84003 16.63C6.84003 16.3296 6.59649 16.0861 6.29605 16.0861C5.99562 16.0861 5.75208 16.3296 5.75208 16.63C5.75208 16.9305 5.99562 17.174 6.29605 17.174Z" fill="white"/>
<path d="M11.7359 10.6462C12.0363 10.6462 12.2799 10.4026 12.2799 10.1022C12.2799 9.80174 12.0363 9.5582 11.7359 9.5582C11.4354 9.5582 11.1919 9.80174 11.1919 10.1022C11.1919 10.4026 11.4354 10.6462 11.7359 10.6462Z" fill="white"/>
<path d="M17.7196 12.8221C18.0201 12.8221 18.2636 12.5785 18.2636 12.2781C18.2636 11.9776 18.0201 11.7341 17.7196 11.7341C17.4192 11.7341 17.1757 11.9776 17.1757 12.2781C17.1757 12.5785 17.4192 12.8221 17.7196 12.8221Z" fill="white"/>
<path d="M23.7033 7.92643C24.0037 7.92643 24.2473 7.68288 24.2473 7.38245C24.2473 7.08202 24.0037 6.83847 23.7033 6.83847C23.4028 6.83847 23.1593 7.08202 23.1593 7.38245C23.1593 7.68288 23.4028 7.92643 23.7033 7.92643Z" fill="white"/>
<path d="M1.2478 2.94366V20.4435C1.24783 20.6094 1.31375 20.7685 1.43106 20.8858C1.54837 21.0031 1.70747 21.069 1.87338 21.0691H28.1258C28.2917 21.069 28.4508 21.0031 28.5682 20.8858C28.6855 20.7685 28.7514 20.6094 28.7514 20.4435V2.94366H1.2478ZM22.8601 8.77513L19.2481 11.7289C19.3288 11.9526 19.3595 12.1912 19.3382 12.428C19.3168 12.6648 19.2439 12.894 19.1245 13.0996C19.005 13.3052 18.842 13.4822 18.6469 13.6181C18.4518 13.754 18.2293 13.8455 17.9951 13.8862C17.7608 13.9269 17.5205 13.9159 17.291 13.8538C17.0615 13.7917 16.8483 13.6802 16.6665 13.5269C16.4847 13.3737 16.3387 13.1825 16.2387 12.9668C16.1387 12.7511 16.0871 12.5161 16.0876 12.2784V12.2675L12.9869 11.1414C12.7744 11.4042 12.4842 11.5931 12.1579 11.681C11.8315 11.7689 11.4858 11.7514 11.17 11.631L7.69396 15.8033C7.88967 16.134 7.96218 16.5231 7.8987 16.902C7.83521 17.2809 7.63981 17.6252 7.34703 17.874C7.05425 18.1227 6.68295 18.26 6.29876 18.2614C5.91457 18.2629 5.54224 18.1285 5.24757 17.882C4.9529 17.6355 4.75487 17.2927 4.68849 16.9143C4.62211 16.5359 4.69165 16.1462 4.88482 15.8141C5.078 15.482 5.38236 15.2289 5.74411 15.0995C6.10586 14.9701 6.50171 14.9728 6.86167 15.107L10.3377 10.9347C10.2088 10.7185 10.1318 10.4753 10.1127 10.2243C10.0935 9.97331 10.1328 9.72128 10.2274 9.488C10.322 9.25471 10.4693 9.0465 10.6578 8.87969C10.8464 8.71288 11.071 8.59201 11.314 8.52655C11.5571 8.46109 11.812 8.45282 12.0588 8.5024C12.3056 8.55197 12.5376 8.65803 12.7366 8.81228C12.9355 8.96652 13.096 9.16475 13.2055 9.39142C13.315 9.61809 13.3705 9.86704 13.3677 10.1188L16.4684 11.2448C16.7146 10.941 17.0632 10.7375 17.4487 10.6724C17.8343 10.6073 18.2304 10.6851 18.5627 10.8912L22.1747 7.93196C22.0459 7.57038 22.0491 7.17492 22.1836 6.81544C22.3181 6.45596 22.5754 6.1556 22.9099 5.96743C23.2445 5.77925 23.6348 5.71538 24.0118 5.78709C24.3889 5.8588 24.7285 6.06148 24.9706 6.35932C25.2127 6.65716 25.3418 7.03098 25.335 7.41475C25.3282 7.79853 25.1859 8.16754 24.9334 8.4566C24.6809 8.74566 24.3343 8.93616 23.9549 8.99444C23.5755 9.05273 23.1878 8.97505 22.8601 8.77513Z" fill="white"/>
<path d="M6.14287e-05 1.56256V0.312561C-0.00156395 0.231348 0.0291225 0.152812 0.0853765 0.0942138C0.14163 0.0356158 0.218849 0.00175063 0.300061 6.10352e-05H29.6994C29.7806 0.00175087 29.8578 0.0355952 29.914 0.0941601C29.9703 0.152725 30.001 0.231222 29.9994 0.312409L29.9999 1.56241C30.0016 1.64365 29.9709 1.72222 29.9147 1.78084C29.8584 1.83947 29.7812 1.87336 29.6999 1.87505H0.300061C0.218851 1.87336 0.141634 1.8395 0.0853804 1.7809C0.0291267 1.72231 -0.00156103 1.64377 6.14287e-05 1.56256Z" fill="white"/>
<path d="M15.5436 22.1569V25.2902C15.1862 25.2032 14.8131 25.2032 14.4557 25.2902V22.1569H15.5436Z" fill="white"/>
</svg>
