<svg width="30" height="30" viewBox="0 0 30 30" fill="none" xmlns="http://www.w3.org/2000/svg">
<path d="M29.8876 28.6217L21.4501 12.6842C21.3704 12.5345 21.2516 12.4092 21.1063 12.3217C20.961 12.2342 20.7947 12.1878 20.6251 12.1873C20.4552 12.1861 20.2882 12.2319 20.1427 12.3196C19.9971 12.4073 19.8786 12.5334 19.8001 12.6842L17.822 16.4248L25.2845 29.9998H29.0626C29.2251 30.0016 29.3852 29.9608 29.527 29.8814C29.6687 29.8021 29.7873 29.687 29.8707 29.5476C29.9542 29.4082 29.9996 29.2493 30.0026 29.0869C30.0056 28.9245 29.9659 28.7641 29.8876 28.6217Z" fill="white"/>
<path d="M11.25 14.9999C12.3632 14.9986 13.4508 14.6664 14.3747 14.0456L12.1875 10.0668V7.55243C13.0294 7.65428 13.8428 7.9216 14.581 8.33899C15.8537 9.04906 17.2929 9.40668 18.75 9.37493C18.9987 9.37493 19.2371 9.27616 19.4129 9.10034C19.5888 8.92453 19.6875 8.68607 19.6875 8.43743V2.81243C19.6875 2.56379 19.5888 2.32533 19.4129 2.14952C19.2371 1.9737 18.9987 1.87493 18.75 1.87493C17.5837 1.90692 16.4311 1.61659 15.4191 1.03587C14.1463 0.325795 12.7071 -0.0318171 11.25 -7.02711e-05C11.0014 -7.02711e-05 10.7629 0.0987018 10.5871 0.274517C10.4113 0.450332 10.3125 0.688789 10.3125 0.93743V10.0668L8.11877 14.0549C9.04542 14.6741 10.1356 15.0031 11.25 14.9999Z" fill="white"/>
<path d="M11.25 16.875C9.81984 16.8779 8.4188 16.4706 7.21316 15.7012L0.112537 28.6125C0.0348223 28.7555 -0.00431703 28.9163 -0.00102941 29.079C0.00225821 29.2418 0.0478595 29.4008 0.131287 29.5406C0.215093 29.6798 0.333244 29.7951 0.474419 29.8756C0.615593 29.956 0.77506 29.9988 0.937537 30H23.1469L15.2813 15.6965C14.0775 16.4659 12.6787 16.8748 11.25 16.875Z" fill="white"/>
</svg>
