<svg width="28" height="20" viewBox="0 0 28 20" fill="none" xmlns="http://www.w3.org/2000/svg">
<path d="M0.247803 0.943665V18.4435C0.24783 18.6094 0.313748 18.7685 0.43106 18.8858C0.548373 19.0031 0.707475 19.069 0.873379 19.0691H27.1258C27.2917 19.069 27.4508 19.0031 27.5682 18.8858C27.6855 18.7685 27.7514 18.6094 27.7514 18.4435V0.943665H0.247803ZM21.8601 6.77513L18.2481 9.72893C18.3288 9.95258 18.3595 10.1912 18.3382 10.428C18.3168 10.6648 18.2439 10.894 18.1245 11.0996C18.005 11.3052 17.842 11.4822 17.6469 11.6181C17.4518 11.754 17.2293 11.8455 16.9951 11.8862C16.7608 11.9269 16.5205 11.9159 16.291 11.8538C16.0615 11.7917 15.8483 11.6802 15.6665 11.5269C15.4847 11.3737 15.3387 11.1825 15.2387 10.9668C15.1387 10.7511 15.0871 10.5161 15.0876 10.2784V10.2675L11.9869 9.14144C11.7744 9.40422 11.4842 9.59308 11.1579 9.68101C10.8315 9.76894 10.4858 9.75144 10.17 9.63102L6.69396 13.8033C6.88967 14.134 6.96218 14.5231 6.8987 14.902C6.83521 15.2809 6.63981 15.6252 6.34703 15.874C6.05425 16.1227 5.68295 16.26 5.29876 16.2614C4.91457 16.2629 4.54224 16.1285 4.24757 15.882C3.9529 15.6355 3.75487 15.2927 3.68849 14.9143C3.62211 14.5359 3.69165 14.1462 3.88482 13.8141C4.078 13.482 4.38236 13.2289 4.74411 13.0995C5.10586 12.9701 5.50171 12.9728 5.86167 13.107L9.3377 8.93472C9.20884 8.71847 9.13182 8.47532 9.11268 8.22431C9.09354 7.97331 9.1328 7.72128 9.22738 7.488C9.32196 7.25471 9.46929 7.0465 9.65783 6.87969C9.84636 6.71288 10.071 6.59201 10.314 6.52655C10.5571 6.46109 10.812 6.45282 11.0588 6.5024C11.3056 6.55197 11.5376 6.65803 11.7366 6.81228C11.9355 6.96652 12.096 7.16475 12.2055 7.39142C12.315 7.61809 12.3705 7.86704 12.3677 8.11876L15.4684 9.24479C15.7146 8.94104 16.0632 8.73753 16.4487 8.67244C16.8343 8.60734 17.2304 8.68513 17.5627 8.89121L21.1747 5.93196C21.0459 5.57038 21.0491 5.17492 21.1836 4.81544C21.3181 4.45596 21.5754 4.1556 21.9099 3.96743C22.2445 3.77925 22.6348 3.71538 23.0118 3.78709C23.3889 3.8588 23.7285 4.06148 23.9706 4.35932C24.2127 4.65716 24.3418 5.03098 24.335 5.41475C24.3282 5.79853 24.1859 6.16754 23.9334 6.4566C23.6809 6.74566 23.3343 6.93616 22.9549 6.99444C22.5755 7.05273 22.1878 6.97505 21.8601 6.77513Z" fill="white"/>
</svg>
