<svg xmlns="http://www.w3.org/2000/svg" width="19" height="18" viewBox="0 0 19 18" fill="none"><path fill-rule="evenodd" clip-rule="evenodd" d="M7.46628 6.72675H10.2518V8.11425C10.653 7.31625 11.682 6.59925 13.2278 6.59925C16.191 6.59925 16.8945 8.18775 16.8945 11.1022V16.5H13.8945V11.766C13.8945 10.1062 13.4933 9.17025 12.4718 9.17025C11.055 9.17025 10.4663 10.179 10.4663 11.7652V16.5H7.46628V6.72675ZM2.32203 16.3725H5.32203V6.59925H2.32203V16.3725ZM5.75178 3.4125C5.75189 3.66396 5.70202 3.91293 5.60507 4.14494C5.50812 4.37695 5.36602 4.58738 5.18703 4.764C4.82433 5.12447 4.33339 5.32624 3.82203 5.325C3.31157 5.32466 2.82176 5.1234 2.45853 4.76475C2.28019 4.58753 2.13857 4.37687 2.04179 4.14482C1.94501 3.91278 1.89497 3.66392 1.89453 3.4125C1.89453 2.90475 2.09703 2.41875 2.45928 2.06025C2.8222 1.70112 3.31221 1.49978 3.82278 1.5C4.33428 1.5 4.82478 1.70175 5.18703 2.06025C5.54853 2.41875 5.75178 2.90475 5.75178 3.4125Z" fill="white"></path></svg>