<svg xmlns="http://www.w3.org/2000/svg" width="25" height="24" viewBox="0 0 25 24" fill="none"><path d="M15.647 12.0056H13.6847C13.6847 15.1408 13.6847 19 13.6847 19H10.7768C10.7768 19 10.7768 15.1782 10.7768 12.0056H9.39453V9.53354H10.7768V7.93458C10.7768 6.78942 11.321 5 13.7114 5L15.8662 5.00826V7.40791C15.8662 7.40791 14.5568 7.40791 14.3022 7.40791C14.0476 7.40791 13.6856 7.53521 13.6856 8.08131V9.53403H15.9011L15.647 12.0056Z" fill="#C2D1D9"></path><mask id="mask0_1032_2748" style="mask-type:luminance" maskUnits="userSpaceOnUse" x="9" y="5" width="7" height="14"><path d="M15.647 12.0056H13.6847C13.6847 15.1408 13.6847 19 13.6847 19H10.7768C10.7768 19 10.7768 15.1782 10.7768 12.0056H9.39453V9.53354H10.7768V7.93458C10.7768 6.78942 11.321 5 13.7114 5L15.8662 5.00826V7.40791C15.8662 7.40791 14.5568 7.40791 14.3022 7.40791C14.0476 7.40791 13.6856 7.53521 13.6856 8.08131V9.53403H15.9011L15.647 12.0056Z" fill="white"></path></mask><g mask="url(#mask0_1032_2748)"><rect x="0.394531" width="24" height="24" fill="white"></rect></g></svg>