<svg xmlns="http://www.w3.org/2000/svg" width="89" height="106" viewBox="0 0 89 106" fill="none"><path d="M8.2777 77.2388C4.11684 71.8435 1.37411 65.8378 0.412784 59.0691C0.258678 57.9809 0.137595 56.8891 0 55.7992V49.9969C0.188964 48.7107 0.383431 47.4246 0.566891 46.1366C3.02709 28.9296 18.0268 13.6428 35.3931 10.5927C39.0531 9.9496 42.7223 9.59536 46.4593 9.75886V0C46.4887 0.00363323 46.5162 0.00726636 46.5456 0.0108996C47.2721 0.426904 48.0114 0.822927 48.7232 1.26255C49.5066 1.74577 50.2349 2.24897 51.0055 2.75581C51.0055 2.75581 50.9926 3.15183 50.9926 3.33894C50.9871 11.2903 50.9835 19.2434 50.9798 27.1947C49.4699 26.3718 47.9582 25.5489 46.4465 24.726C43.2341 26.548 40.0199 28.3701 36.7892 30.203C36.7892 31.9216 36.7892 33.9217 36.7892 35.6093C35.2848 34.7537 33.7988 34.0216 32.2375 33.1314C32.2375 33.0133 32.2375 33.3422 32.2375 33.1314C29.0031 34.9408 25.7522 36.7592 22.4995 38.5776V53.5048C21.0116 52.6637 19.5238 51.8208 17.9827 50.9488C17.9827 50.7599 17.9827 51.2195 17.9827 50.9488C14.7538 52.7927 11.5231 54.6347 8.27587 56.4895C8.27587 63.2037 8.27587 70.5446 8.27587 77.237" fill="#E5DD00"></path><path d="M88.9981 49.5046C88.9981 50.7563 88.9981 52.0097 89 53.2614C87.9909 66.0594 83.6393 77.4932 75.0148 87.1794C75.0057 86.9759 74.9855 86.7725 74.9855 86.569C74.9855 73.4313 74.9855 60.2935 74.9855 47.1557V45.132C71.7603 43.319 68.5497 41.5151 65.3392 39.7112C63.8293 40.5487 62.3213 41.3862 60.8114 42.2218C60.8022 31.7418 60.793 21.2617 60.7875 10.7817C60.7875 9.95328 60.8132 9.12672 60.8261 8.29834C62.2424 9.09765 63.6605 9.89696 65.0768 10.6945V14.5911C78.807 22.388 87.6919 33.3676 89 49.5028" fill="#009149"></path><path d="M60.8243 8.30006C60.8114 9.12844 60.7857 9.95681 60.7857 10.7834C60.7912 21.2634 60.8004 31.7435 60.8096 42.2235C60.8096 61.5305 60.8096 80.8357 60.8114 100.143C57.766 102.375 54.5481 104.326 51.1559 105.99C51.1082 106.014 51.0367 105.987 50.9761 105.985C50.9835 105.809 50.9945 105.632 50.9945 105.456C50.9982 82.7322 51 60.0082 51.0018 37.2842C51.0018 33.9216 50.989 30.559 50.9816 27.1965C50.9853 19.2452 50.989 11.292 50.9945 3.3407C50.9945 3.15359 51.0073 2.75757 51.0073 2.75757C54.2692 4.59962 57.5623 6.45983 60.8243 8.30188" fill="#FFFFFE"></path><path d="M36.7928 35.2969V30.2049C40.0236 28.3737 43.236 26.5498 46.4502 24.7278C46.4557 24.904 46.4685 25.0802 46.4685 25.2564C46.4685 43.6424 46.4703 62.0265 46.4685 80.4107C46.4685 87.8733 46.4593 95.336 46.4538 102.799L36.8387 97.5323C36.8332 82.5307 36.8295 67.5291 36.8204 52.5256C36.8167 46.7815 36.802 41.0392 36.7928 35.2969Z" fill="#FFFFFE"></path><path d="M22.5014 53.5066V38.5795C25.7541 36.7611 29.005 34.9426 32.2394 33.1333C32.2394 33.1333 32.2468 33.2223 32.2468 33.2623C32.2468 53.8863 32.2449 74.5103 32.2431 95.1344C28.9903 93.2724 25.7376 91.4085 22.4867 89.5465C22.4922 77.5332 22.4959 65.5199 22.5014 53.5066Z" fill="#FFFFFE"></path><path d="M65.3374 39.7112C68.5479 41.5151 71.7585 43.3208 74.9837 45.132V47.1557C74.9837 60.2934 74.9837 73.4312 74.9837 86.569C74.9837 86.7724 75.0021 86.9759 75.0131 87.1793C72.1052 90.66 68.8892 93.83 65.3502 96.6748C65.3466 77.6875 65.3411 58.7003 65.3374 39.713" fill="#FFFFFE"></path><path d="M46.452 102.8C46.4575 95.3377 46.4649 87.875 46.4667 80.4124C46.4685 62.0264 46.4667 43.6423 46.4667 25.2581C46.4667 25.0819 46.4557 24.9057 46.4484 24.7295C47.9582 25.5524 49.4699 26.3753 50.9798 27.1965C50.9872 30.559 51 33.9216 51 37.2841C51 60.0082 50.9963 82.7322 50.9927 105.456C50.9927 105.632 50.9798 105.809 50.9743 105.985L46.4502 102.8H46.452Z" fill="#009149"></path><path d="M32.243 95.1344C32.243 74.5103 32.2467 53.8863 32.2467 33.2623L32.2412 33.1424V33.1333C33.8025 34.0216 35.2885 34.7555 36.7928 35.6112C36.802 41.3553 36.8167 46.7852 36.8204 52.5275C36.8295 67.5291 36.8332 82.5307 36.8387 97.5341C35.3068 96.7348 33.7749 95.9355 32.243 95.1362" fill="#009149"></path><path d="M8.27771 77.2389C8.27771 70.5465 8.27771 63.2056 8.27771 56.4914C11.5268 54.6384 14.7557 52.7945 17.9864 50.9507C17.9864 54.4168 17.9864 58.5314 17.9864 61.9975C17.9809 70.1469 17.9736 78.298 17.9662 86.4473C14.3429 83.7896 11.0333 80.8031 8.27771 77.2389Z" fill="#FFFFFE"></path><path d="M65.3374 39.7112C65.341 58.6984 65.3465 77.6857 65.3502 96.673C63.8367 97.8283 62.3249 98.9855 60.8114 100.141C60.8114 80.8339 60.8114 61.5287 60.8096 42.2217C62.3194 41.3843 63.8275 40.5468 65.3374 39.7112Z" fill="#E5DD00"></path><path d="M17.9662 86.4473C17.9736 78.298 17.9809 70.1469 17.9846 61.9975C17.9864 58.5314 17.9846 55.0653 17.9846 51.5992V50.9507C19.5257 51.8227 21.0135 52.6638 22.5014 53.5067C22.4959 65.5199 22.4904 77.5332 22.4867 89.5465L17.9662 86.4473Z" fill="#009149"></path></svg>