<svg xmlns="http://www.w3.org/2000/svg" width="205" height="74" viewBox="0 0 205 74" fill="none"><path d="M6.38119 53.8086C3.43041 50.0499 1.48535 45.866 0.8036 41.1505C0.694312 40.3925 0.608443 39.6319 0.510864 38.8726V34.8304C0.644872 33.9344 0.782783 33.0384 0.912888 32.1411C2.65759 20.1538 13.2949 9.50426 25.6107 7.37941C28.2062 6.9314 30.8083 6.68462 33.4586 6.79852V0C33.4794 0.0025311 33.4989 0.00506212 33.5197 0.00759322C34.0349 0.297404 34.5592 0.573293 35.0641 0.879556C35.6196 1.21619 36.1361 1.56675 36.6826 1.91984C36.6826 1.91984 36.6735 2.19573 36.6735 2.32608C36.6695 7.86538 36.6669 13.4059 36.6643 18.9452C35.5936 18.372 34.5215 17.7987 33.4495 17.2254C31.1713 18.4947 28.8919 19.7641 26.6007 21.041C26.6007 22.2382 26.6007 23.6316 26.6007 24.8073C25.5339 24.2112 24.48 23.7012 23.3729 23.0811C23.3729 22.9988 23.3729 23.2279 23.3729 23.0811C21.0791 24.3415 18.7737 25.6084 16.4669 26.8752V37.2742C15.4117 36.6882 14.3566 36.101 13.2637 35.4935C13.2637 35.3619 13.2637 35.6821 13.2637 35.4935C10.9739 36.7781 8.68274 38.0613 6.37989 39.3535C6.37989 44.0309 6.37989 49.145 6.37989 53.8073" fill="#E5DD00"></path><path d="M63.6259 34.4874C63.6259 35.3594 63.6259 36.2326 63.6272 37.1046C62.9117 46.0204 59.8256 53.9857 53.7094 60.7336C53.7029 60.5919 53.6886 60.4501 53.6886 60.3084C53.6886 51.156 53.6886 42.0035 53.6886 32.8511V31.4412C51.4013 30.1782 49.1245 28.9215 46.8476 27.6649C45.7769 28.2483 44.7074 28.8317 43.6367 29.4138C43.6302 22.1129 43.6237 14.812 43.6198 7.51101C43.6198 6.93392 43.638 6.3581 43.6471 5.78101C44.6515 6.33785 45.6572 6.89469 46.6616 7.45026V10.1649C56.3986 15.5966 62.6996 23.2456 63.6272 34.4862" fill="#009149"></path><path d="M43.6458 5.78233C43.6367 6.35942 43.6184 6.93651 43.6184 7.51233C43.6223 14.8133 43.6288 22.1142 43.6354 29.4152C43.6354 42.8654 43.6354 56.3144 43.6367 69.7646C41.4769 71.32 39.1949 72.6792 36.7892 73.8384C36.7554 73.8549 36.7047 73.8359 36.6617 73.8346C36.6669 73.7119 36.6748 73.5891 36.6748 73.4663C36.6774 57.6356 36.6787 41.8049 36.68 25.9741C36.68 23.6316 36.6709 21.2891 36.6656 18.9466C36.6682 13.4073 36.6709 7.86668 36.6748 2.32738C36.6748 2.19703 36.6839 1.92114 36.6839 1.92114C38.9971 3.20441 41.3325 4.50033 43.6458 5.78359" fill="#FFFFFE"></path><path d="M26.6034 24.5896V21.0423C28.8945 19.7666 31.1727 18.496 33.4521 17.2267C33.456 17.3494 33.4651 17.4722 33.4651 17.595C33.4651 30.4036 33.4664 43.2109 33.4651 56.0182C33.4651 61.2171 33.4586 66.416 33.4547 71.6149L26.6359 67.946C26.632 57.4951 26.6294 47.0442 26.6229 36.5921C26.6203 32.5904 26.6099 28.59 26.6034 24.5896Z" fill="#FFFFFE"></path><path d="M16.4682 37.2754V26.8764C18.7749 25.6096 21.0804 24.3428 23.3741 23.0823C23.3741 23.0823 23.3793 23.1443 23.3793 23.1721C23.3793 37.5399 23.378 51.9077 23.3767 66.2754C21.07 64.9782 18.7632 63.6798 16.4578 62.3826C16.4617 54.0135 16.4643 45.6445 16.4682 37.2754Z" fill="#FFFFFE"></path><path d="M46.8463 27.6648C49.1231 28.9215 51.4 30.1794 53.6872 31.4412V32.851C53.6872 42.0034 53.6872 51.1559 53.6872 60.3083C53.6872 60.4501 53.7002 60.5918 53.708 60.7336C51.6459 63.1583 49.3651 65.3667 46.8554 67.3486C46.8528 54.1211 46.8489 40.8936 46.8463 27.6661" fill="#FFFFFE"></path><path d="M33.4534 71.6161C33.4573 66.4172 33.4625 61.2183 33.4638 56.0195C33.4651 43.2109 33.4638 30.4035 33.4638 17.5962C33.4638 17.4734 33.456 17.3507 33.4508 17.2279C34.5216 17.8012 35.5936 18.3745 36.6644 18.9465C36.6696 21.289 36.6787 23.6316 36.6787 25.9741C36.6787 41.8048 36.6761 57.6356 36.6735 73.4663C36.6735 73.5891 36.6644 73.7118 36.6605 73.8346L33.4521 71.6161H33.4534Z" fill="#009149"></path><path d="M23.3768 66.2754C23.3768 51.9076 23.3794 37.5399 23.3794 23.1721L23.3755 23.0886V23.0823C24.4827 23.7011 25.5365 24.2124 26.6034 24.8085C26.6099 28.8101 26.6203 32.5929 26.6229 36.5933C26.6294 47.0441 26.632 57.495 26.6359 67.9472C25.5495 67.3904 24.4632 66.8335 23.3768 66.2767" fill="#009149"></path><path d="M6.38123 53.8085C6.38123 49.1462 6.38123 44.0321 6.38123 39.3547C8.68538 38.0638 10.9752 36.7793 13.2664 35.4948C13.2664 37.9094 13.2664 40.7759 13.2664 43.1905C13.2625 48.8678 13.2573 54.5463 13.2521 60.2235C10.6825 58.3721 8.3354 56.2915 6.38123 53.8085Z" fill="#FFFFFE"></path><path d="M46.8464 27.6648C46.849 40.8923 46.8529 54.1198 46.8555 67.3473C45.7821 68.1522 44.71 68.9583 43.6367 69.7632C43.6367 56.313 43.6367 42.864 43.6354 29.4138C44.7061 28.8304 45.7756 28.2469 46.8464 27.6648Z" fill="#E5DD00"></path><path d="M13.2521 60.2235C13.2573 54.5463 13.2625 48.8678 13.2651 43.1905C13.2664 40.7759 13.2651 38.3612 13.2651 35.9466V35.4948C14.358 36.1022 15.4131 36.6882 16.4683 37.2754C16.4644 45.6444 16.4605 54.0135 16.4579 62.3826L13.2521 60.2235Z" fill="#009149"></path><path d="M80.1094 56.0144C80.4913 55.9863 80.8283 55.9245 81.1229 55.8291C81.4149 55.7336 81.6595 55.5933 81.8567 55.4108C82.0515 55.2283 82.2012 54.9953 82.3036 54.7146C82.4059 54.4339 82.4558 54.0942 82.4558 53.6928C82.4558 53.3616 82.4009 53.0724 82.2936 52.8254C82.1838 52.5784 82.034 52.3735 81.8393 52.2134C81.6446 52.0534 81.4174 51.9327 81.1528 51.8541C80.8882 51.7755 80.6061 51.7362 80.3041 51.7362C80.1069 51.7362 79.9571 51.7531 79.8573 51.7896C79.7574 51.826 79.7075 51.9299 79.7075 52.0983V60.8455C79.7075 60.9803 79.6476 61.0589 79.5278 61.0813C79.4429 61.0982 79.3505 61.1122 79.2482 61.1262C79.1458 61.1403 79.046 61.1515 78.9486 61.1599C78.8513 61.1683 78.7614 61.174 78.6815 61.1768C78.5992 61.1768 78.5392 61.1824 78.4993 61.1824C78.3795 61.1824 78.3196 61.1122 78.3196 60.9718V52.5138C78.3196 52.2331 78.2647 52.045 78.1548 51.9524C78.045 51.8597 77.9027 51.812 77.7305 51.812C77.6306 51.812 77.5233 51.8204 77.4035 51.8373L77.3585 51.3741C77.8553 51.2786 78.3695 51.1972 78.9037 51.1327C79.4379 51.0681 79.9821 51.0344 80.5387 51.0344C80.7784 51.0344 81.028 51.0457 81.2901 51.0681C81.5522 51.0906 81.8118 51.1327 82.0639 51.1944C82.3161 51.2562 82.5582 51.3432 82.7853 51.4527C83.0125 51.5622 83.2122 51.7053 83.3844 51.8822C83.5567 52.059 83.6915 52.2724 83.7938 52.5222C83.8962 52.7721 83.9461 53.0696 83.9461 53.4121C83.9461 53.777 83.8962 54.0999 83.8013 54.3778C83.704 54.6557 83.5717 54.9027 83.3994 55.1161C83.2272 55.3294 83.0275 55.5119 82.8003 55.6663C82.5732 55.8179 82.326 55.947 82.0639 56.0537V56.1042C82.1887 56.1323 82.321 56.1772 82.4658 56.2361C82.6106 56.2951 82.7504 56.3793 82.8877 56.4888C83.025 56.5982 83.1498 56.7386 83.2671 56.907C83.3844 57.0755 83.4768 57.2832 83.5467 57.5302L84.0984 59.4616C84.1733 59.7254 84.2407 59.936 84.3031 60.0932C84.3655 60.2504 84.4304 60.3711 84.5003 60.4525C84.5702 60.5339 84.65 60.5873 84.7374 60.6125C84.8273 60.6378 84.9371 60.649 85.0719 60.649L85.0944 61.0869C84.9995 61.1094 84.8972 61.129 84.7848 61.1515C84.6725 61.1711 84.5627 61.1852 84.4528 61.1992C84.343 61.2104 84.2456 61.2217 84.1583 61.2273C84.0709 61.2357 84.006 61.2413 83.9611 61.2413C83.8038 61.2413 83.6615 61.2189 83.5367 61.1768C83.4119 61.1347 83.3021 61.0617 83.2022 60.9578C83.1024 60.8539 83.015 60.7164 82.9376 60.5451C82.8602 60.3739 82.7903 60.1577 82.7254 59.8995L82.1962 57.8418C82.1213 57.5499 82.0315 57.3141 81.9291 57.14C81.8243 56.966 81.6945 56.8312 81.5397 56.7386C81.3825 56.646 81.1952 56.5842 80.9731 56.5533C80.7509 56.5225 80.4863 56.5 80.1718 56.4888L80.1044 56.0087L80.1094 56.0144Z" fill="white"></path><path d="M91.2046 60.0226C91.2046 60.1468 91.2046 60.2434 91.2132 60.3124C91.2218 60.3813 91.2391 60.4365 91.2692 60.4733C91.2994 60.5101 91.3512 60.5377 91.4245 60.5469C91.4935 60.5561 91.597 60.5607 91.7263 60.5607H92.6491C93.0286 60.5607 93.339 60.5515 93.5762 60.5331C93.8134 60.5147 94.016 60.4549 94.1842 60.3583C94.3524 60.2572 94.499 60.1008 94.624 59.8847C94.7491 59.6685 94.8914 59.3604 95.0509 58.9603L95.4088 59.0431C95.4088 59.0799 95.4002 59.1718 95.3786 59.319C95.3571 59.4662 95.3312 59.6409 95.2967 59.8387C95.2622 60.0364 95.2234 60.2342 95.1846 60.4411C95.1415 60.6481 95.0983 60.8228 95.0552 60.9792C94.9949 61.154 94.8784 61.2413 94.706 61.2413C94.5335 61.2413 94.3179 61.2413 94.0764 61.2413C93.8349 61.2413 93.5633 61.2367 93.2657 61.2321C92.9682 61.2321 92.6491 61.2275 92.3084 61.2229C91.9678 61.2229 91.6099 61.2229 91.239 61.2229H90.0532C89.9886 61.2229 89.9411 61.2 89.9196 61.1586C89.898 61.1172 89.8851 61.0712 89.8851 61.0298V53.6532C89.8851 53.3911 89.829 53.2209 89.7212 53.1335C89.6134 53.0507 89.4754 53.0047 89.3116 53.0047C89.2124 53.0047 89.1089 53.0139 89.0054 53.0277L88.9623 52.6046C89.0615 52.5862 89.2081 52.5587 89.3978 52.5265C89.5875 52.4943 89.7859 52.4667 89.9929 52.4345C90.1998 52.4023 90.3982 52.3793 90.5922 52.3563C90.7863 52.3379 90.9372 52.3241 91.045 52.3241H93.6452C93.809 52.3241 93.9772 52.3241 94.154 52.3241C94.3308 52.3241 94.5248 52.3195 94.7404 52.3103C94.8181 52.3103 94.8612 52.3471 94.8698 52.4253C94.8741 52.4989 94.8784 52.5908 94.8871 52.7104C94.8957 52.83 94.9 52.9542 94.9043 53.0921C94.9086 53.2301 94.9129 53.3726 94.9216 53.5152C94.9259 53.6578 94.9345 53.7912 94.9388 53.9153C94.9431 54.0395 94.9474 54.1453 94.9517 54.2281C94.9517 54.3154 94.9517 54.3706 94.9517 54.389L94.5938 54.4258C94.5119 54.0625 94.43 53.7819 94.3481 53.5796C94.2661 53.3818 94.1583 53.2347 94.029 53.1427C93.8996 53.0507 93.7357 52.9955 93.5417 52.9771C93.3433 52.9587 93.0889 52.9496 92.7741 52.9496H91.515C91.4331 52.9496 91.3727 52.9496 91.3339 52.9542C91.2951 52.9588 91.2649 52.9726 91.2434 52.991C91.2261 53.0094 91.2132 53.0415 91.2132 53.0783C91.2132 53.1151 91.2132 53.1703 91.2132 53.2347V56.3435C91.6056 56.3251 91.9635 56.3067 92.2869 56.2883C92.6146 56.2699 92.8992 56.2562 93.1364 56.2424C93.3778 56.2286 93.5719 56.2194 93.7185 56.2102C93.8651 56.201 93.9557 56.1964 93.9901 56.1964C94.1238 56.1964 94.1885 56.2745 94.1885 56.4263C94.1885 56.5229 94.1842 56.6241 94.1756 56.7252C94.1669 56.8264 94.154 56.9368 94.1411 57.0563L91.2089 56.9506V60.0134L91.2046 60.0226Z" fill="white"></path><path d="M101.302 58.063L100.194 61.1135C100.176 61.1664 100.133 61.1973 100.063 61.2105C99.9764 61.2193 99.8765 61.2281 99.7678 61.2325C99.6592 61.2369 99.5331 61.2413 99.3941 61.2413C99.3158 61.2413 99.2767 61.2149 99.2767 61.1664C99.2767 61.1532 99.2767 61.1399 99.2854 61.1311L102.584 53.0553L102.432 52.6277C102.423 52.588 102.419 52.5616 102.419 52.5483C102.419 52.4734 102.462 52.4293 102.558 52.4161C102.636 52.4029 102.723 52.3897 102.827 52.3764C102.932 52.3632 103.032 52.3544 103.127 52.3412C103.223 52.3323 103.314 52.3235 103.392 52.3191C103.475 52.3147 103.536 52.3103 103.571 52.3103C103.666 52.3103 103.736 52.3676 103.779 52.4778L106.991 60.9239C107.004 60.9636 107.013 60.9901 107.013 61.0033C107.013 61.087 106.965 61.1355 106.869 61.1488C106.782 61.162 106.687 61.1752 106.578 61.1884C106.469 61.2017 106.365 61.2105 106.261 61.2193C106.156 61.2281 106.061 61.2325 105.974 61.2325C105.887 61.2325 105.826 61.2325 105.787 61.2325C105.704 61.2325 105.652 61.1972 105.622 61.1223L104.448 58.0013L101.302 58.0542V58.063ZM101.532 57.4371H104.231L102.862 53.787L101.528 57.4371H101.532Z" fill="white"></path><path d="M113.194 60.052C113.194 60.1741 113.194 60.2691 113.203 60.3369C113.212 60.4048 113.23 60.459 113.261 60.4952C113.292 60.5314 113.345 60.5585 113.421 60.5676C113.496 60.5766 113.599 60.5811 113.732 60.5811H114.462C114.853 60.5811 115.178 60.5721 115.423 60.5495C115.672 60.5314 115.881 60.4681 116.055 60.3595C116.228 60.251 116.379 60.0927 116.513 59.8757C116.646 59.6586 116.793 59.3557 116.958 58.9622L117.327 59.0436C117.327 59.0798 117.314 59.1702 117.291 59.324C117.265 59.4732 117.238 59.6496 117.198 59.844C117.162 60.0385 117.122 60.242 117.078 60.45C117.033 60.658 116.989 60.8343 116.944 60.9836C116.882 61.1554 116.762 61.2413 116.584 61.2413C116.215 61.2368 115.757 61.2323 115.209 61.2278C114.662 61.2232 113.999 61.2187 113.23 61.2187H112.006C111.939 61.2187 111.89 61.1961 111.868 61.1554C111.846 61.1147 111.833 61.0695 111.833 61.0288V53.6579C111.833 53.5177 111.819 53.4046 111.793 53.3142C111.766 53.2283 111.726 53.1559 111.677 53.1062C111.623 53.0564 111.561 53.0202 111.49 53.0022C111.419 52.9841 111.339 52.9705 111.25 52.9705C111.143 52.9705 111.032 52.9796 110.925 52.9931L110.88 52.5771C111.147 52.5274 111.397 52.4821 111.637 52.4505C111.877 52.4143 112.086 52.3872 112.269 52.3691C112.451 52.351 112.607 52.3329 112.731 52.3239C112.856 52.3148 112.931 52.3103 112.967 52.3103C113.123 52.3103 113.203 52.3917 113.203 52.55V60.052H113.194Z" fill="white"></path><path d="M121.195 52.5748C121.343 52.5255 121.481 52.4807 121.614 52.4493C121.747 52.4134 121.863 52.3865 121.967 52.3686C122.068 52.3507 122.154 52.3327 122.223 52.3238C122.292 52.3148 122.334 52.3103 122.354 52.3103C122.44 52.3103 122.484 52.391 122.484 52.5524V60.9454C122.484 61.0665 122.452 61.1337 122.386 61.1561C122.339 61.1696 122.29 61.183 122.233 61.1965C122.176 61.2099 122.122 61.2189 122.07 61.2279C122.016 61.2368 121.969 61.2413 121.922 61.2413C121.878 61.2413 121.843 61.2413 121.824 61.2413C121.757 61.2413 121.725 61.1785 121.725 61.053V53.6464C121.725 53.5074 121.718 53.3953 121.703 53.3056C121.688 53.2205 121.666 53.1487 121.639 53.0994C121.609 53.0501 121.575 53.0142 121.535 52.9963C121.496 52.9783 121.451 52.9649 121.402 52.9649C121.343 52.9649 121.281 52.9739 121.222 52.9873L121.197 52.5748H121.195Z" fill="white"></path><path d="M131.808 54.5122C131.754 54.2436 131.665 54.0102 131.542 53.8164C131.419 53.6227 131.271 53.4641 131.089 53.3364C130.906 53.2087 130.704 53.1162 130.477 53.0546C130.251 52.9929 130.009 52.9621 129.748 52.9621C129.487 52.9621 129.245 52.9885 129.014 53.0458C128.782 53.103 128.575 53.1911 128.393 53.3144C128.215 53.4377 128.072 53.5918 127.964 53.7856C127.855 53.975 127.806 54.204 127.806 54.4682C127.806 54.706 127.87 54.9042 127.993 55.0759C128.117 55.2433 128.284 55.393 128.496 55.5163C128.708 55.6396 128.945 55.7541 129.221 55.851C129.492 55.9479 129.778 56.0448 130.068 56.1461C130.394 56.2606 130.724 56.3795 131.049 56.5116C131.374 56.6437 131.67 56.7978 131.926 56.9872C132.183 57.1722 132.395 57.3968 132.557 57.661C132.72 57.9252 132.799 58.2511 132.799 58.6386C132.799 58.9777 132.745 59.2772 132.641 59.5326C132.538 59.7925 132.39 60.0171 132.202 60.2108C132.015 60.4046 131.793 60.5675 131.547 60.6996C131.296 60.8318 131.024 60.9375 130.739 61.0167C130.448 61.096 130.147 61.1577 129.837 61.1885C129.521 61.2237 129.216 61.2413 128.91 61.2413C128.545 61.2413 128.181 61.2237 127.821 61.1841C127.456 61.1445 127.096 61.0872 126.737 61.0167C126.687 61.0079 126.648 60.9859 126.618 60.9551C126.589 60.9242 126.569 60.889 126.564 60.8538C126.554 60.7525 126.539 60.5984 126.53 60.4046C126.52 60.2064 126.51 60.0038 126.5 59.7969C126.49 59.5899 126.485 59.4049 126.48 59.2376C126.475 59.0702 126.47 58.9733 126.47 58.9425L126.88 58.9073C126.919 59.2024 127.003 59.4578 127.136 59.6736C127.269 59.8894 127.436 60.0655 127.643 60.2064C127.846 60.3473 128.082 60.4486 128.343 60.5147C128.609 60.5807 128.89 60.6116 129.196 60.6116C129.467 60.6116 129.733 60.5852 129.989 60.5279C130.246 60.4707 130.472 60.3826 130.67 60.2549C130.867 60.1316 131.029 59.9686 131.148 59.7748C131.266 59.5811 131.33 59.3433 131.33 59.0614C131.33 58.8324 131.266 58.6342 131.143 58.4713C131.015 58.3084 130.847 58.1674 130.64 58.0397C130.428 57.9164 130.192 57.8019 129.92 57.705C129.649 57.6081 129.373 57.5069 129.083 57.4056C128.757 57.2867 128.427 57.1634 128.102 57.0268C127.777 56.8903 127.481 56.7274 127.225 56.538C126.963 56.3487 126.756 56.1152 126.594 55.8422C126.431 55.5692 126.352 55.2345 126.352 54.8381C126.352 54.3581 126.456 53.9573 126.668 53.6315C126.88 53.31 127.151 53.0502 127.496 52.852C127.836 52.6538 128.22 52.5173 128.654 52.4336C129.088 52.35 129.531 52.3103 129.98 52.3103C130.28 52.3103 130.606 52.3323 130.96 52.372C131.315 52.416 131.645 52.4689 131.956 52.5393C132.005 52.5481 132.045 52.5701 132.074 52.601C132.104 52.6318 132.124 52.667 132.128 52.7023C132.138 52.8035 132.148 52.9489 132.163 53.1338C132.173 53.3188 132.183 53.5038 132.197 53.6931C132.207 53.8825 132.217 54.0498 132.222 54.204C132.227 54.3581 132.232 54.4462 132.232 54.477L131.818 54.5122H131.808Z" fill="white"></path><path d="M138.692 58.063L137.584 61.1135C137.566 61.1664 137.523 61.1973 137.453 61.2105C137.366 61.2193 137.266 61.2281 137.158 61.2325C137.049 61.2369 136.923 61.2413 136.784 61.2413C136.706 61.2413 136.667 61.2149 136.667 61.1664C136.667 61.1532 136.667 61.1399 136.675 61.1311L139.974 53.0553L139.822 52.6277C139.813 52.588 139.809 52.5616 139.809 52.5483C139.809 52.4734 139.852 52.4293 139.948 52.4161C140.026 52.4029 140.113 52.3897 140.217 52.3764C140.322 52.3632 140.417 52.3544 140.517 52.3412C140.613 52.3323 140.7 52.3235 140.782 52.3191C140.865 52.3147 140.926 52.3103 140.961 52.3103C141.056 52.3103 141.126 52.3676 141.169 52.4778L144.381 60.9239C144.394 60.9636 144.403 60.9901 144.403 61.0033C144.403 61.087 144.355 61.1355 144.259 61.1488C144.172 61.162 144.077 61.1752 143.968 61.1884C143.859 61.2017 143.755 61.2105 143.651 61.2193C143.546 61.2281 143.451 61.2325 143.364 61.2325C143.277 61.2325 143.216 61.2325 143.177 61.2325C143.094 61.2325 143.038 61.1972 143.012 61.1223L141.838 58.0013L138.692 58.0542V58.063ZM138.922 57.4371H141.621L140.252 53.787L138.918 57.4371H138.922Z" fill="white"></path><path d="M150.173 52.9525C149.906 52.9525 149.688 52.9616 149.514 52.9798C149.34 52.998 149.196 53.0572 149.081 53.1528C148.966 53.253 148.87 53.4079 148.796 53.622C148.722 53.836 148.648 54.132 148.578 54.5191L148.27 54.4827C148.27 54.4827 148.27 54.4053 148.27 54.3142C148.27 54.2231 148.278 54.1138 148.282 53.9863C148.289 53.8588 148.293 53.7221 148.3 53.5673C148.307 53.417 148.315 53.2667 148.322 53.121C148.33 52.9752 148.337 52.8431 148.348 52.7156C148.356 52.5927 148.363 52.4925 148.374 52.4242C148.378 52.3467 148.415 52.3103 148.485 52.3103C148.855 52.3194 149.214 52.3285 149.551 52.3331C149.891 52.3376 150.202 52.3422 150.491 52.3422H152.534C152.819 52.3422 153.133 52.3422 153.477 52.3331C153.821 52.3331 154.177 52.3194 154.55 52.3103C154.606 52.3103 154.639 52.3467 154.647 52.4242C154.654 52.4925 154.661 52.5927 154.669 52.7156C154.676 52.8386 154.68 52.9752 154.687 53.121C154.695 53.2667 154.698 53.4125 154.702 53.5673C154.706 53.7176 154.71 53.8588 154.71 53.9863C154.71 54.1138 154.713 54.2231 154.717 54.3142C154.717 54.4053 154.717 54.4599 154.717 54.4827L154.41 54.5191C154.34 54.132 154.269 53.836 154.199 53.622C154.129 53.4079 154.036 53.253 153.925 53.1528C153.814 53.0526 153.673 52.998 153.503 52.9798C153.333 52.9616 153.115 52.9525 152.844 52.9525H152.06V60.9408C152.06 61.0637 152.012 61.132 151.912 61.1548C151.842 61.1685 151.764 61.1821 151.682 61.1958C151.597 61.2095 151.516 61.2186 151.438 61.2277C151.36 61.2368 151.283 61.2413 151.216 61.2413C151.15 61.2413 151.098 61.2413 151.064 61.2413C150.968 61.2413 150.916 61.1776 150.916 61.0501V52.9479H150.161L150.173 52.9525Z" fill="white"></path><path d="M158.59 52.5748C158.886 52.5255 159.162 52.4807 159.428 52.4493C159.694 52.4134 159.926 52.3865 160.128 52.3686C160.335 52.3507 160.503 52.3327 160.641 52.3238C160.779 52.3148 160.863 52.3103 160.902 52.3103C161.075 52.3103 161.164 52.391 161.164 52.5524V60.9454C161.164 61.0665 161.099 61.1337 160.966 61.1561C160.873 61.1696 160.774 61.183 160.661 61.1965C160.547 61.2099 160.439 61.2189 160.335 61.2279C160.227 61.2368 160.128 61.2413 160.039 61.2413C159.951 61.2413 159.882 61.2413 159.837 61.2413C159.709 61.2413 159.64 61.1785 159.64 61.053V53.6464C159.64 53.5074 159.625 53.3953 159.596 53.3056C159.566 53.2205 159.522 53.1487 159.467 53.0994C159.408 53.0501 159.339 53.0142 159.26 52.9963C159.181 52.9783 159.093 52.9649 158.994 52.9649C158.876 52.9649 158.753 52.9739 158.634 52.9873L158.585 52.5748H158.59Z" fill="white"></path><path d="M169.782 52.3103C170.432 52.3103 171.022 52.4069 171.549 52.6045C172.075 52.7977 172.523 53.0831 172.894 53.4519C173.265 53.8208 173.553 54.273 173.755 54.8131C173.956 55.3488 174.057 55.9591 174.057 56.6397C174.057 57.3818 173.942 58.0404 173.718 58.6112C173.494 59.182 173.173 59.6606 172.757 60.0514C172.345 60.4378 171.841 60.7364 171.26 60.9384C170.674 61.1404 170.025 61.2413 169.306 61.2413C168.652 61.2413 168.061 61.1404 167.535 60.9384C167.004 60.7364 166.555 60.4466 166.185 60.069C165.814 59.6914 165.526 59.2347 165.329 58.6902C165.128 58.1458 165.031 57.5354 165.031 56.8505C165.031 56.1128 165.146 55.4586 165.37 54.8921C165.594 54.3257 165.915 53.8515 166.331 53.4695C166.748 53.0875 167.247 52.8021 167.828 52.6045C168.414 52.4069 169.063 52.3103 169.782 52.3103ZM169.402 52.925C168.908 52.925 168.482 53.0216 168.125 53.2192C167.773 53.4124 167.48 53.6759 167.256 54.0008C167.031 54.3257 166.867 54.7033 166.761 55.1292C166.656 55.5552 166.601 55.9943 166.601 56.4553C166.601 56.969 166.656 57.474 166.771 57.9702C166.885 58.4663 167.063 58.9142 167.311 59.305C167.558 59.6958 167.878 60.0119 168.276 60.2534C168.67 60.4949 169.146 60.6178 169.7 60.6178C170.194 60.6178 170.62 60.5168 170.976 60.3149C171.329 60.1129 171.622 59.8451 171.846 59.507C172.07 59.1733 172.235 58.7912 172.345 58.3566C172.45 57.9219 172.505 57.4784 172.505 57.0173C172.505 56.5036 172.45 56.003 172.336 55.5112C172.221 55.0195 172.043 54.5848 171.796 54.1984C171.549 53.8164 171.228 53.5046 170.835 53.2719C170.441 53.0392 169.965 52.9206 169.407 52.9206" fill="white"></path><path d="M179.321 52.3147C179.376 52.3147 179.421 52.3324 179.449 52.3633C179.481 52.3942 179.513 52.4383 179.554 52.4869L184.795 59.2414L184.608 52.6326C184.608 52.5752 184.649 52.5399 184.731 52.5355C184.823 52.5222 184.942 52.509 185.097 52.4913C185.248 52.4781 185.395 52.4693 185.537 52.4693C185.619 52.4693 185.66 52.5046 185.66 52.5796L185.477 59.7624V61.1089C185.477 61.1663 185.436 61.2016 185.358 61.206C185.267 61.2148 185.166 61.2237 185.052 61.2281C184.937 61.2281 184.823 61.2369 184.708 61.2369C184.663 61.2369 184.626 61.2281 184.603 61.2104C184.58 61.1928 184.553 61.1663 184.53 61.1265L179.247 54.319L179.435 61.0956C179.435 61.153 179.394 61.1884 179.316 61.1928C179.225 61.206 179.101 61.2193 178.941 61.2281C178.781 61.2369 178.639 61.2413 178.51 61.2413C178.428 61.2413 178.387 61.206 178.387 61.131L178.579 53.4537L177.957 52.6282C177.957 52.6282 177.925 52.5796 177.925 52.5487C177.925 52.4869 177.97 52.4384 178.062 52.4163C178.144 52.403 178.245 52.3898 178.373 52.3765C178.501 52.3633 178.629 52.3545 178.758 52.3412C178.886 52.3324 179.005 52.3236 179.11 52.3191C179.215 52.3147 179.289 52.3103 179.33 52.3103" fill="white"></path><path d="M193.894 54.5017C193.851 54.2316 193.78 54.0007 193.679 53.809C193.582 53.6129 193.461 53.4561 193.316 53.3254C193.172 53.1991 193.008 53.1032 192.829 53.0422C192.649 52.9812 192.454 52.9507 192.243 52.9507C192.033 52.9507 191.842 52.9812 191.654 53.0335C191.467 53.0901 191.299 53.1773 191.159 53.3036C191.015 53.4256 190.901 53.5824 190.816 53.7741C190.73 53.9658 190.687 54.1924 190.687 54.4581C190.687 54.6934 190.738 54.8981 190.839 55.0637C190.941 55.2336 191.073 55.3817 191.241 55.5037C191.409 55.63 191.604 55.7389 191.822 55.8391C192.041 55.935 192.267 56.0352 192.501 56.1354C192.762 56.2487 193.024 56.3707 193.285 56.5014C193.546 56.6321 193.78 56.7889 193.987 56.9762C194.194 57.1635 194.362 57.3901 194.49 57.6515C194.619 57.9173 194.686 58.244 194.686 58.6317C194.686 58.9716 194.643 59.2678 194.557 59.5292C194.471 59.7906 194.354 60.0171 194.206 60.2088C194.054 60.4005 193.878 60.5661 193.679 60.6968C193.476 60.8275 193.262 60.9364 193.031 61.0148C192.801 61.0976 192.559 61.1542 192.31 61.1891C192.06 61.2239 191.81 61.2413 191.569 61.2413C191.276 61.2413 190.983 61.2196 190.695 61.1847C190.406 61.1455 190.117 61.0888 189.829 61.0148C189.79 61.0061 189.758 60.9843 189.735 60.9538C189.712 60.9233 189.696 60.8884 189.692 60.8536C189.684 60.749 189.677 60.6009 189.665 60.4005C189.657 60.2001 189.649 59.9997 189.641 59.7949C189.634 59.5902 189.63 59.4028 189.626 59.2373C189.622 59.0717 189.618 58.9715 189.618 58.9454L189.946 58.9105C189.977 59.2024 190.043 59.4595 190.152 59.6773C190.258 59.8951 190.394 60.0694 190.558 60.2088C190.722 60.3482 190.909 60.4528 191.12 60.5181C191.331 60.5835 191.561 60.6183 191.803 60.6183C192.021 60.6183 192.232 60.5922 192.439 60.5356C192.645 60.4789 192.825 60.3874 192.985 60.2655C193.145 60.1391 193.273 59.9779 193.367 59.7819C193.461 59.5858 193.511 59.3462 193.511 59.0674C193.511 58.8365 193.461 58.6404 193.359 58.4792C193.258 58.318 193.125 58.1743 192.957 58.0479C192.79 57.9216 192.598 57.8127 192.38 57.7125C192.165 57.6123 191.939 57.5121 191.709 57.4119C191.448 57.2942 191.186 57.1679 190.925 57.0328C190.664 56.8978 190.429 56.7366 190.223 56.5449C190.016 56.3532 189.848 56.1223 189.719 55.8479C189.591 55.5734 189.528 55.2423 189.528 54.8415C189.528 54.3623 189.61 53.9571 189.778 53.6347C189.946 53.3123 190.168 53.0509 190.441 52.8549C190.714 52.6588 191.022 52.5194 191.37 52.4366C191.717 52.3539 192.072 52.3103 192.435 52.3103C192.673 52.3103 192.938 52.3321 193.219 52.3713C193.504 52.4149 193.769 52.4671 194.018 52.5368C194.057 52.5455 194.089 52.5673 194.112 52.5978C194.135 52.6283 194.151 52.6632 194.155 52.698C194.163 52.8026 194.171 52.9464 194.182 53.1293C194.19 53.3123 194.202 53.4996 194.21 53.687C194.217 53.8743 194.225 54.0442 194.229 54.1967C194.233 54.3492 194.237 54.4407 194.237 54.4668L193.905 54.5017H193.894Z" fill="white"></path><path d="M91.5409 51.0345C91.8411 49.5889 91.9502 49.0552 92.0696 48.4828H92.8302C92.5096 49.1183 92.2231 49.6859 91.5409 51.0345Z" fill="white"></path><path d="M87.4843 32.7611L81.9345 45.408C81.8396 45.631 81.625 45.7648 81.2867 45.8053C80.8534 45.8459 80.3624 45.8743 79.8095 45.8945C79.2566 45.9148 78.6335 45.927 77.9362 45.927C77.5525 45.927 77.3585 45.8256 77.3585 45.6229C77.3585 45.562 77.3709 45.5134 77.3957 45.4728L93.8923 12.0086L93.1331 10.2407C93.0836 10.0785 93.0629 9.96907 93.0629 9.90419C93.0629 9.60008 93.2899 9.4176 93.7479 9.35678C94.1316 9.29596 94.5814 9.2392 95.0972 9.19054C95.6129 9.14189 96.1122 9.09322 96.5909 9.05267C97.0695 9.01212 97.5151 8.98375 97.9236 8.96348C98.3321 8.9432 98.6292 8.93103 98.8232 8.93103C99.3018 8.93103 99.6525 9.1662 99.8671 9.6325L115.93 44.6213C116.001 44.7835 116.038 44.893 116.038 44.9579C116.038 45.3025 115.798 45.5053 115.316 45.5661C114.882 45.6269 114.396 45.6837 113.859 45.7323C113.319 45.781 112.79 45.8216 112.275 45.854C111.759 45.8864 111.284 45.9027 110.851 45.9148C110.418 45.927 110.108 45.931 109.914 45.931C109.506 45.931 109.229 45.7769 109.085 45.4728L103.213 32.5502L87.4719 32.7651L87.4843 32.7611ZM88.6355 30.17H102.145L95.2994 15.0538L88.6355 30.17Z" fill="white"></path><path d="M163.448 17.6763L149.946 45.408C149.85 45.631 149.635 45.7648 149.295 45.8053C148.859 45.8459 148.37 45.8743 147.831 45.8945C147.287 45.9148 146.736 45.927 146.184 45.927C145.799 45.927 145.533 45.7729 145.388 45.4688L132.719 17.3114L128.555 45.3756C128.505 45.6188 128.29 45.7526 127.904 45.7729C127.469 45.8134 126.929 45.8499 126.291 45.8783C125.652 45.9067 124.98 45.9229 124.284 45.9229C123.944 45.9229 123.774 45.8094 123.774 45.5864C123.774 45.4445 123.786 45.3431 123.811 45.2823L130.869 12.9205L129.712 10.2406C129.662 10.1189 129.642 10.0176 129.642 9.9365C129.642 9.61215 129.882 9.41755 130.367 9.35673C130.753 9.29592 131.205 9.23917 131.723 9.19051C132.242 9.14186 132.748 9.0932 133.241 9.05266C133.735 9.01211 134.187 8.98374 134.597 8.96347C135.008 8.9432 135.311 8.93103 135.501 8.93103C135.767 8.93103 135.974 8.99185 136.119 9.11348C136.264 9.23511 136.397 9.40538 136.517 9.62837L149.477 38.3656L162.76 12.7705L162.399 10.2406C162.374 10.2203 162.362 10.1392 162.362 9.99733C162.362 9.65271 162.59 9.43782 163.05 9.35673C163.436 9.29592 163.884 9.23917 164.39 9.19051C164.896 9.14186 165.393 9.0932 165.874 9.05266C166.355 9.01211 166.795 8.98374 167.193 8.96347C167.591 8.9432 167.886 8.93103 168.081 8.93103C168.686 8.93103 169.022 9.16617 169.097 9.63242L174.019 44.5566C174.044 44.6377 174.057 44.7026 174.057 44.7553V44.8931C174.057 45.2783 173.828 45.5013 173.368 45.5661C172.958 45.6269 172.485 45.6837 171.954 45.7324C171.423 45.781 170.905 45.8216 170.399 45.854C169.893 45.8864 169.428 45.9026 169.005 45.9148C168.582 45.927 168.276 45.931 168.081 45.931C167.865 45.931 167.683 45.8945 167.537 45.8256C167.392 45.7526 167.309 45.6351 167.284 45.4769L163.448 17.6844V17.6763Z" fill="white"></path><path d="M183.082 11.2857C184.407 11.0867 185.668 10.9155 186.858 10.7762C188.048 10.6368 189.107 10.5254 190.027 10.4458C190.947 10.3661 191.715 10.3064 192.331 10.2666C192.943 10.2268 193.335 10.2069 193.508 10.2069C194.293 10.2069 194.686 10.5254 194.686 11.1623V44.7328C194.686 45.2105 194.39 45.4892 193.799 45.5728C193.382 45.6325 192.922 45.6882 192.42 45.736C191.918 45.7838 191.424 45.8236 190.947 45.8554C190.466 45.8873 190.027 45.9032 189.622 45.9151C189.217 45.9271 188.917 45.931 188.719 45.931C188.128 45.931 187.837 45.6802 187.837 45.1826V15.5612C187.837 15.0038 187.77 14.55 187.635 14.1997C187.5 13.8534 187.301 13.5787 187.044 13.3757C186.782 13.1766 186.479 13.0373 186.124 12.9577C185.77 12.8781 185.369 12.8382 184.926 12.8382C184.386 12.8382 183.841 12.8701 183.305 12.9258L183.082 11.2817V11.2857Z" fill="white"></path></svg>