<svg xmlns="http://www.w3.org/2000/svg" width="25" height="24" viewBox="0 0 25 24" fill="none"><path fill-rule="evenodd" clip-rule="evenodd" d="M19.394 16.2941V10.563V7.70541C19.394 6.21314 18.1804 5 16.6881 5H8.09994C6.60768 5 5.39453 6.21314 5.39453 7.70541V10.563V16.2941C5.39453 17.7869 6.60768 19 8.09994 19H16.6886C18.1804 19 19.394 17.7869 19.394 16.2941ZM14.8587 11.9993C14.8587 13.3582 13.7517 14.4632 12.3938 14.4632C11.0354 14.4632 9.92932 13.3577 9.93081 11.9988C9.93131 11.4623 10.1053 10.9671 10.3968 10.5625C10.8455 9.94182 11.5728 9.53529 12.3953 9.53529C13.2173 9.53529 13.945 9.94231 14.3927 10.563C14.6832 10.9676 14.8587 11.4628 14.8587 11.9993ZM17.7744 8.98499V6.91961V6.61224L17.4655 6.61323L15.4011 6.61967L15.4091 8.99292L17.7744 8.98499ZM12.3943 15.8281C14.5058 15.8281 16.2231 14.1097 16.2231 11.9993C16.2231 11.4916 16.1205 11.0062 15.9385 10.563H18.0292V16.2941C18.0292 17.0348 17.4268 17.6347 16.6876 17.6347H8.09944C7.35926 17.6347 6.75789 17.0348 6.75789 16.2941V10.563H8.84756C8.6671 11.0062 8.56596 11.4916 8.56596 11.9993C8.56596 14.1097 10.2828 15.8281 12.3943 15.8281Z" fill="black"></path><mask id="mask0_1032_2735" style="mask-type:luminance" maskUnits="userSpaceOnUse" x="5" y="5" width="15" height="14"><path fill-rule="evenodd" clip-rule="evenodd" d="M19.394 16.2941V10.563V7.70541C19.394 6.21314 18.1804 5 16.6881 5H8.09994C6.60768 5 5.39453 6.21314 5.39453 7.70541V10.563V16.2941C5.39453 17.7869 6.60768 19 8.09994 19H16.6886C18.1804 19 19.394 17.7869 19.394 16.2941ZM14.8587 11.9993C14.8587 13.3582 13.7517 14.4632 12.3938 14.4632C11.0354 14.4632 9.92932 13.3577 9.93081 11.9988C9.93131 11.4623 10.1053 10.9671 10.3968 10.5625C10.8455 9.94182 11.5728 9.53529 12.3953 9.53529C13.2173 9.53529 13.945 9.94231 14.3927 10.563C14.6832 10.9676 14.8587 11.4628 14.8587 11.9993ZM17.7744 8.98499V6.91961V6.61224L17.4655 6.61323L15.4011 6.61967L15.4091 8.99292L17.7744 8.98499ZM12.3943 15.8281C14.5058 15.8281 16.2231 14.1097 16.2231 11.9993C16.2231 11.4916 16.1205 11.0062 15.9385 10.563H18.0292V16.2941C18.0292 17.0348 17.4268 17.6347 16.6876 17.6347H8.09944C7.35926 17.6347 6.75789 17.0348 6.75789 16.2941V10.563H8.84756C8.6671 11.0062 8.56596 11.4916 8.56596 11.9993C8.56596 14.1097 10.2828 15.8281 12.3943 15.8281Z" fill="white"></path></mask><g mask="url(#mask0_1032_2735)"><rect x="0.394531" width="24" height="24" fill="white"></rect></g></svg>