<svg xmlns="http://www.w3.org/2000/svg" width="22" height="16" viewBox="0 0 22 16" fill="none"><path fill-rule="evenodd" clip-rule="evenodd" d="M17.1131 2.49288L17.0759 2.46808C16.3069 1.73634 15.4015 1.38907 14.3597 1.43868L14.3225 1.36426L14.3473 1.35186C15.2899 1.14102 15.848 0.917778 16.0217 0.66973C16.0713 0.471291 16.0093 0.35967 15.7984 0.334865C15.3271 0.396877 14.8806 0.496096 14.4962 0.657327C14.9923 0.334865 15.1783 0.111622 15.0667 0C14.583 0.0124024 14.0497 0.26045 13.504 0.756547C13.7024 0.409279 13.7892 0.210841 13.7396 0.186036C13.4668 0.35967 13.2435 0.558108 13.0451 0.768949C12.6234 1.24024 12.2885 1.67432 12.0281 2.0712L12.0157 2.09601C11.3584 3.17501 10.8871 4.25402 10.6142 5.35784L10.515 5.44465L10.4902 5.45706C10.0933 4.96096 9.60961 4.53928 9.0391 4.20441C8.36937 3.75793 7.57562 3.34865 6.65784 2.93937C5.66565 2.41847 4.64865 1.99679 3.63165 1.66192C3.61925 2.81535 4.18976 3.72072 5.29358 4.39045V4.40285C4.9091 4.40285 4.52463 4.46486 4.15256 4.57649C4.22697 5.64309 4.98352 6.37484 6.40979 6.77171L6.39739 6.79652C5.83928 6.75931 5.38039 6.95775 5.02072 7.36703C5.49201 8.2848 6.32298 8.71889 7.52601 8.69408C7.29036 8.81811 7.10433 8.94213 6.9803 9.09096C6.75706 9.32661 6.68265 9.59946 6.75706 9.90952C7.01751 10.3808 7.4764 10.5917 8.15853 10.5544L8.19574 10.6041L8.18334 10.6289C7.00511 11.8443 5.57883 12.39 3.91691 12.2784L3.89211 12.2908C2.87511 12.2784 1.7837 11.7947 0.605469 10.8273C1.7837 12.5264 3.3588 13.7543 5.30598 14.5356C7.52601 15.2674 9.75844 15.3294 11.9785 14.6968H12.0157C14.1737 14.0767 15.9969 12.7869 17.5099 10.8521C18.2045 9.84751 18.6386 8.88012 18.8122 7.94994C19.9408 7.98715 20.747 7.66468 21.2555 6.97015L21.2431 6.94535C20.8586 7.08177 20.1269 7.04456 19.0478 6.82132V6.6973C20.2385 6.56087 20.9454 6.1764 21.1687 5.54387C20.3377 5.86634 19.5191 5.87874 18.713 5.56868C18.5641 4.45246 18.0308 3.42306 17.1131 2.49288Z" fill="#C2D1D9"></path></svg>